HIERARCHY
ROOT Hips
{
	OFFSET -14.64140 90.27770 -84.91600
	CHANNELS 6 Xposition Yposition Zposition Zrotation Xrotation Yrotation
	JOINT Spine
	{
		OFFSET 0.00000 13.20850 -1.60436
		CHANNELS 3 Zrotation Xrotation Yrotation
		JOINT Spine1
		{
			OFFSET 0.00000 8.61716 0.00000
			CHANNELS 3 Zrotation Xrotation Yrotation
			JOINT Spine2
			{
				OFFSET 0.00000 8.61717 0.00000
				CHANNELS 3 Zrotation Xrotation Yrotation
				JOINT Spine3
				{
					OFFSET 0.00000 8.61717 0.00000
					CHANNELS 3 Zrotation Xrotation Yrotation
					JOINT Neck
					{
						OFFSET 0.00000 11.07920 1.10792
						CHANNELS 3 Zrotation Xrotation Yrotation
						JOINT Neck1
						{
							OFFSET 0.00000 7.08032 0.00000
							CHANNELS 3 Zrotation Xrotation Yrotation
							JOINT Head
							{
								OFFSET 0.00000 7.08031 0.00000
								CHANNELS 3 Zrotation Xrotation Yrotation
								End site
								{
									OFFSET 0.00000 0.00000 0.00000
								}
							}
						}
					}
					JOINT RightShoulder
					{
						OFFSET -0.01000 7.91373 5.19711
						CHANNELS 3 Zrotation Xrotation Yrotation
						JOINT RightArm
						{
							OFFSET -18.41580 0.00000 0.00000
							CHANNELS 3 Zrotation Xrotation Yrotation
							JOINT RightForeArm
							{
								OFFSET -29.11090 0.00000 0.00000
								CHANNELS 3 Zrotation Xrotation Yrotation
								JOINT RightHand
								{
									OFFSET -24.65040 0.00000 0.00000
									CHANNELS 3 Zrotation Xrotation Yrotation
									JOINT RightHandThumb1
									{
										OFFSET -5.35114 -0.85590 3.97906
										CHANNELS 3 Zrotation Xrotation Yrotation
										JOINT RightHandThumb2
										{
											OFFSET -4.52789 0.00000 0.00000
											CHANNELS 3 Zrotation Xrotation Yrotation
											JOINT RightHandThumb3
											{
												OFFSET -2.46976 0.00000 0.00000
												CHANNELS 3 Zrotation Xrotation Yrotation
												End site
												{
													OFFSET 0.00000 0.00000 0.00000
												}
											}
										}
									}
									JOINT RightHandIndex1
									{
										OFFSET -14.26970 0.00000 2.88139
										CHANNELS 3 Zrotation Xrotation Yrotation
										JOINT RightHandIndex2
										{
											OFFSET -5.48836 0.00000 0.00000
											CHANNELS 3 Zrotation Xrotation Yrotation
											JOINT RightHandIndex3
											{
												OFFSET -3.01859 0.00000 0.00000
												CHANNELS 3 Zrotation Xrotation Yrotation
												End site
												{
													OFFSET 0.00000 0.00000 0.00000
												}
											}
										}
									}
									JOINT RightHandMiddle1
									{
										OFFSET -14.26970 0.00000 -0.09147
										CHANNELS 3 Zrotation Xrotation Yrotation
										JOINT RightHandMiddle2
										{
											OFFSET -6.17441 0.00000 0.00000
											CHANNELS 3 Zrotation Xrotation Yrotation
											JOINT RightHandMiddle3
											{
												OFFSET -3.56743 0.00000 0.00000
												CHANNELS 3 Zrotation Xrotation Yrotation
												End site
												{
													OFFSET 0.00000 0.00000 0.00000
												}
											}
										}
									}
									JOINT RightHandRing1
									{
										OFFSET -12.69180 0.00000 -3.06433
										CHANNELS 3 Zrotation Xrotation Yrotation
										JOINT RightHandRing2
										{
											OFFSET -5.62556 0.00000 0.00000
											CHANNELS 3 Zrotation Xrotation Yrotation
											JOINT RightHandRing3
											{
												OFFSET -3.56744 0.00000 0.00000
												CHANNELS 3 Zrotation Xrotation Yrotation
												End site
												{
													OFFSET 0.00000 0.00000 0.00000
												}
											}
										}
									}
									JOINT RightHandPinky1
									{
										OFFSET -11.11390 0.00000 -6.03719
										CHANNELS 3 Zrotation Xrotation Yrotation
										JOINT RightHandPinky2
										{
											OFFSET -4.52789 0.00000 0.00000
											CHANNELS 3 Zrotation Xrotation Yrotation
											JOINT RightHandPinky3
											{
												OFFSET -2.46976 0.00000 0.00000
												CHANNELS 3 Zrotation Xrotation Yrotation
												End site
												{
													OFFSET 0.00000 0.00000 0.00000
												}
											}
										}
									}
								}
							}
						}
					}
					JOINT LeftShoulder
					{
						OFFSET 0.01000 7.91373 5.19711
						CHANNELS 3 Zrotation Xrotation Yrotation
						JOINT LeftArm
						{
							OFFSET 18.41580 0.00000 0.00000
							CHANNELS 3 Zrotation Xrotation Yrotation
							JOINT LeftForeArm
							{
								OFFSET 29.11090 0.00000 0.00000
								CHANNELS 3 Zrotation Xrotation Yrotation
								JOINT LeftHand
								{
									OFFSET 24.65040 0.00000 0.00000
									CHANNELS 3 Zrotation Xrotation Yrotation
									JOINT LeftHandThumb1
									{
										OFFSET 5.35114 -0.85590 3.97906
										CHANNELS 3 Zrotation Xrotation Yrotation
										JOINT LeftHandThumb2
										{
											OFFSET 4.52789 0.00000 0.00000
											CHANNELS 3 Zrotation Xrotation Yrotation
											JOINT LeftHandThumb3
											{
												OFFSET 2.46977 0.00000 0.00000
												CHANNELS 3 Zrotation Xrotation Yrotation
												End site
												{
													OFFSET 0.00000 0.00000 0.00000
												}
											}
										}
									}
									JOINT LeftHandIndex1
									{
										OFFSET 14.26970 0.00000 2.88139
										CHANNELS 3 Zrotation Xrotation Yrotation
										JOINT LeftHandIndex2
										{
											OFFSET 5.48836 0.00000 0.00000
											CHANNELS 3 Zrotation Xrotation Yrotation
											JOINT LeftHandIndex3
											{
												OFFSET 3.01859 0.00000 0.00000
												CHANNELS 3 Zrotation Xrotation Yrotation
												End site
												{
													OFFSET 0.00000 0.00000 0.00000
												}
											}
										}
									}
									JOINT LeftHandMiddle1
									{
										OFFSET 14.26970 0.00000 -0.09147
										CHANNELS 3 Zrotation Xrotation Yrotation
										JOINT LeftHandMiddle2
										{
											OFFSET 6.17440 0.00000 0.00000
											CHANNELS 3 Zrotation Xrotation Yrotation
											JOINT LeftHandMiddle3
											{
												OFFSET 3.56744 0.00000 0.00000
												CHANNELS 3 Zrotation Xrotation Yrotation
												End site
												{
													OFFSET 0.00000 0.00000 0.00000
												}
											}
										}
									}
									JOINT LeftHandRing1
									{
										OFFSET 12.69180 0.00000 -3.06433
										CHANNELS 3 Zrotation Xrotation Yrotation
										JOINT LeftHandRing2
										{
											OFFSET 5.62556 0.00000 0.00000
											CHANNELS 3 Zrotation Xrotation Yrotation
											JOINT LeftHandRing3
											{
												OFFSET 3.56744 0.00000 0.00000
												CHANNELS 3 Zrotation Xrotation Yrotation
												End site
												{
													OFFSET 0.00000 0.00000 0.00000
												}
											}
										}
									}
									JOINT LeftHandPinky1
									{
										OFFSET 11.11390 0.00000 -6.03719
										CHANNELS 3 Zrotation Xrotation Yrotation
										JOINT LeftHandPinky2
										{
											OFFSET 4.52789 0.00000 0.00000
											CHANNELS 3 Zrotation Xrotation Yrotation
											JOINT LeftHandPinky3
											{
												OFFSET 2.46976 0.00000 0.00000
												CHANNELS 3 Zrotation Xrotation Yrotation
												End site
												{
													OFFSET 0.00000 0.00000 0.00000
												}
											}
										}
									}
								}
							}
						}
					}
					JOINT pCube4
					{
						OFFSET 0.00000 10.91090 1.10792
						CHANNELS 3 Zrotation Xrotation Yrotation
						End site
						{
							OFFSET 0.00000 0.00000 0.00000
						}
					}
				}
			}
		}
	}
	JOINT RightUpLeg
	{
		OFFSET -9.98441 0.00000 0.00000
		CHANNELS 3 Zrotation Xrotation Yrotation
		JOINT RightLeg
		{
			OFFSET 0.00000 -42.11790 0.00000
			CHANNELS 3 Zrotation Xrotation Yrotation
			JOINT RightFoot
			{
				OFFSET 0.00000 -45.00020 -0.00001
				CHANNELS 3 Zrotation Xrotation Yrotation
				JOINT RightForeFoot
				{
					OFFSET 0.00000 -3.74820 0.00000
					CHANNELS 3 Zrotation Xrotation Yrotation
					JOINT RightToeBase
					{
						OFFSET 0.00000 0.06325 14.43120
						CHANNELS 3 Zrotation Xrotation Yrotation
						End site
						{
							OFFSET 0.00000 0.00000 0.00000
						}
					}
				}
			}
		}
	}
	JOINT LeftUpLeg
	{
		OFFSET 9.98441 0.00000 0.00000
		CHANNELS 3 Zrotation Xrotation Yrotation
		JOINT LeftLeg
		{
			OFFSET 0.00000 -42.11800 0.00000
			CHANNELS 3 Zrotation Xrotation Yrotation
			JOINT LeftFoot
			{
				OFFSET 0.00000 -45.00070 0.00000
				CHANNELS 3 Zrotation Xrotation Yrotation
				JOINT LeftForeFoot
				{
					OFFSET 0.00000 -3.74824 0.00000
					CHANNELS 3 Zrotation Xrotation Yrotation
					JOINT LeftToeBase
					{
						OFFSET 0.00000 0.06325 14.43110
						CHANNELS 3 Zrotation Xrotation Yrotation
						End site
						{
							OFFSET 0.00000 0.00000 0.00000
						}
					}
				}
			}
		}
	}
}
MOTION
Frames: 4
Frame Time: 0.050000
0.017625995309552132 -0.0010573961381886829 -0.020107240586483274 -0.012075997642279198 -0.01888120429095165 0.0008921882793718625 -3.2476321314941416 0.42376220257346675 -0.7585867967058999 -1.1405829304478843 3.8441351712634066 0.41650498418101356 -1.359876340414135 -2.1306488603286304 -1.0116033943080882 -0.4706505889741999 0.4921113352271136 -0.8155837192178017 -0.5068688723667747 13.344338185243215 2.3953439115337036 0.38011998853374035 0.20331726344928439 4.339806595800983 -0.07178425088825081 -14.71419685613364 0.303143715372137 -4.8724962778343786 1.780626569120532 -15.279109318603764 73.32797378979072 19.848666047969623 -0.9480051225444943 2.7485037279858906 2.396152465499708 42.129766490580664 23.273604385198865 -0.20603726603947767 -4.156205513678089 4.5360200845639795 -0.11928714437787044 -1.5712113232873024 -0.024410117939909423 0.024300230017920626 -56.18983548181769 0.029098154160749963 -0.03039588379137269 -56.2148761771988 -38.7589836260921 0.04115010511271927 0.020849597633085047 0.019639360568424025 -0.027425261595056042 0.037865470349764015 0.013196175893125115 0.0199235364574202 -0.039755023782434416 -36.64870150595546 -0.036280472628949754 -0.006984092048683079 -0.008154506309084809 0.018439468396627138 0.041535915537890634 0.00512030938116589 -0.04285219937094802 0.03472481178970182 -19.803740210807103 -0.03900264336998156 -0.039250976182164186 -0.003647755656382862 0.00999930589586987 -0.0029370775089603775 0.00019475312964293642 -0.04963481760775504 0.019623193162921753 24.059811002454392 -0.01767966083910091 0.04589147769665041 28.840566276473158 0.03564446128800207 0.004888706340396973 28.865019220467588 0.024644180804155872 -0.022385021508101996 6.190020561134738 1.3589628797308275 13.849051165468433 -72.59685345294716 25.398391915524282 -4.090273065447345 -0.7803010419598353 -11.175040467617904 -42.48995581284132 -9.488356053464766 -0.21367318969261964 3.122756363442066 -0.4762942995191292 0.03885616017126365 -8.127887227019425 -0.0008883684021977202 0.04003667065594697 44.58610580962589 -0.002609051228237807 -0.012311771094525066 44.58641487623615 12.485288679001266 0.038266221747079596 0.030342100362458848 0.033711085683395904 -0.00986099164459057 0.029950416406310954 0.008605543791488802 0.009853927417208336 0.02763966279699808 11.075662276407977 0.029732011383653514 0.033520575303857096 0.014445005939895467 -0.03220209242288588 -0.011446660930200324 -0.028094579806629355 0.01899175630938729 -0.03239016285057606 4.76330529196186 -0.018227544734981577 -0.01582470937237468 -0.00897209857979924 -0.03190706900547018 -0.007617902799468428 -0.006412333817340448 -0.03413880886793796 0.021728274084686652 -5.577465248811136 -0.011219329052557885 -0.004306021972906247 -6.672693810301854 0.040811446461638284 -0.040037330623496806 -6.697620859859088 -0.01747109766915065 0.012012241331668325 -0.03709645705658692 -0.024164570777296238 0.01377958810698495 8.021354091912597 3.4628223422855395 -19.213971525806777 -0.0342982142570242 10.37638152455459 0.03562871216388014 -5.624495155332083 -15.61420904653025 3.2075364662696173 0.015092941384758037 0.023595707658842162 -0.003893192823412057 0.04113822310767521 4.736123711672943 -0.008260215753495802 12.494161427757469 -8.232321409089025 6.871702501653777 0.042357135780080296 46.37801057011963 -0.015427876542087316 -4.348993145001911 -14.786895067853456 -3.793728333302619 0.01304485031414969 -0.042457427050522814 -0.025054601283334435 0.0008844647174632269 -10.766355742165105 0.031709318691674225 
-0.0038785763893724556 -0.020823057944442225 0.029263504309337753 -0.03214407692868267 0.03812992196451692 0.0005852237088445023 -3.170504224253336 0.45967068001497263 -0.762908314907547 -1.1518824228457774 3.820194159603659 0.4189014173299939 -1.2876399041367232 -2.059033317485343 -1.0736771260875737 -0.46373640913005626 0.52795203501575 -0.853730523370011 -0.5909633661549518 13.454485219376336 2.4734221044590634 0.36536620200746933 0.11042812244666861 4.668882073826521 -0.22350816671086543 -14.842769887384492 0.3275420210739709 -5.050561882147621 1.851055827652807 -15.20746555697731 72.6036200766407 20.081360647209046 -0.40665582319855 2.542615675571434 1.9363948046070967 42.81260523148773 22.870300599234405 -0.20061646088255358 -4.198484059871269 4.527378601681694 -0.12580220000559428 -1.6400315667314105 -0.009124663586004547 0.009841846173671358 -56.24120783596806 0.010308059881057364 -0.049755535181710775 -56.22715845950206 -38.816460657611564 0.014846309182413284 0.019853549957948618 0.0003142135445657594 0.009853273261353003 0.02377677519570206 -0.024274447795182584 -0.02584014582720804 0.014281917369579504 -36.72599121636289 0.026291695794822902 -0.0049906027183153736 0.04458917475378089 -0.014373735368269351 0.03931323544241864 -0.015312783948171347 0.044373362055288676 -0.013588495214932076 -19.761123648260448 0.005108335338253659 -0.008142265207523768 0.0248903949362842 -0.03294691739919514 -0.005557761997437624 0.0033611713245317175 -0.03326423686733594 -0.008712465204911495 24.06764736129047 -0.030613402345602395 -0.008635993222726884 28.844773158978377 -0.03636830887986403 -0.013589143805292372 28.901766028482538 -0.001269659442293045 -0.028170323431620934 6.676357951974361 1.449858326340863 13.79399361624276 -72.070261797613 24.267897825816164 -5.680664232150752 -0.48363768991802203 -11.763366716520078 -43.35373363615973 -8.39734205195921 0.07588273011112431 2.837380358578716 -0.4586243639613066 0.04308256585365197 -8.144168741518005 -0.03802435821975891 0.035998185906305956 44.520023832439605 0.01044555956486704 -0.042440325074678556 44.537604656569435 12.466866339865174 0.017470077670072276 0.008450542613788714 -0.0027196361871110845 -0.04347577672795914 0.046977013282483646 -0.04100239586768968 -0.009476597496093383 0.031827377701514684 11.071545370730254 -0.006067068354862037 0.017789098800062495 -0.03967137392282291 -0.04757954666528809 0.041171986208261756 0.04551528085601217 0.0283286609281506 0.03585201316971658 4.733449448167323 -0.01993159878662732 0.03284238470241264 0.027324549399986523 -0.007511482901417038 -0.0396284585742766 -0.026143946638358936 -0.0018413769304701918 0.037325982959044005 -5.564650272506453 0.0022951747798448646 0.026227071178014316 -6.690180448711573 -0.043959046958986225 -0.003568800235505815 -6.691793629609845 0.010489368179564213 0.04986191062743039 -0.03162798918734961 -0.03557495335734919 0.03634590908312652 8.042133865307305 3.5081752354188263 -19.186447696051676 0.043142130134186524 10.359889135588878 -0.020510141032853337 -5.654703399047628 -15.644313508912239 3.1998142219288437 -0.047576122159131366 0.003999361057822958 0.022636313876091232 0.03136241988254766 4.737681694048587 0.019698178833725193 12.467749923873985 -8.201570357178639 6.908161119948071 0.003430038171064447 46.42590366350236 -0.04224907480971355 -4.312153513696934 -14.749086784859477 -3.845217779668769 0.0365417723649811 -0.010392868813416823 -0.027382230805148504 0.01567641813799817 -10.698253272107968 0.046722347193752366 
0.02647532415200863 0.04021252045344597 0.047709390510049195 -0.02306070480966413 -0.03903084044145252 0.005263734236174905 -3.147237521699661 0.551108333385129 -0.7320752684568754 -1.1998877016324687 3.8499176116328977 0.35750996068509844 -1.3074539930320253 -2.1483392023355927 -1.30180916545432 -0.5095155139165114 0.594553421464216 -0.8168284833596563 -0.8248401556249803 13.653602240494257 2.9768124140931795 0.35329311016020154 0.2109343373063246 5.861193908787511 -0.4172475957123011 -14.825102337491957 0.490168776736827 -5.344213849470625 1.8226621678970747 -15.12398937032882 71.68183489216364 20.049407970315617 -0.44557081203467735 2.1707299118627463 1.2553167967171908 43.346736523116036 22.634170079503846 -0.12969959161625386 -4.282976100140993 4.526308872679813 -0.1083539146928726 -1.5665427476149472 0.04695683006524092 0.02841371547002603 -56.25152452012416 -0.013464025779562717 0.049524663222668054 -56.27466384630771 -38.81461633744379 -0.033060547625542384 0.0006553243671204912 0.040723703590454005 0.00340239373760339 -0.04034040198881147 0.0390900916937241 0.025262666853952793 0.03919480550542609 -36.71665378199254 0.028782277525083118 -0.03054041304173302 0.018678495617403847 0.016452253098136832 -0.044436093267614246 -0.007449854854163121 -0.04722688937686647 -0.004133949378510413 -19.765577431496805 0.0030468184703963254 -0.01685516534850237 0.02508213663259554 0.04530563248072022 0.01952884485325108 -0.002119894088430019 0.03001401481423137 0.0011521842533958164 24.050824582170822 0.007861023082902468 -0.010094631887305243 28.817490696774108 -0.0068608131259146 -0.020752768119175317 28.90327841484852 -0.023398177950464998 -0.0010399558660083926 7.3067422506577815 1.5729889668066788 13.700842812820312 -71.55419446076046 22.94209382958938 -7.645504416339793 0.26062302483814603 -12.524643278365307 -44.36398737166803 -7.313749019442679 0.4642216122242898 2.6485257732661283 -0.4665395106980826 0.048219050348823095 -8.07843930166181 0.015513700040424228 0.015785038870306054 44.581148084258736 -0.017617642259503498 0.03661849638393384 44.60278740724539 12.432876010174043 0.015326172238502722 0.013439891095168638 0.048096801595656956 0.03114146912255586 -0.04280564907391596 -0.012654476927075832 -0.009270160394383829 -0.010351633741855583 11.100319836696594 0.028905685420584224 0.028617766675443915 0.0009929265005081524 -0.04835776015783006 0.02118857930234804 0.005105778077273097 -0.018979351197870753 -0.02591949898222325 4.794065808180276 -0.04597437906416369 0.020925586374930704 0.01979700033371308 -0.026902151037524115 0.025608991195739582 0.01676009180756199 0.005374677126313989 -0.04088216386565898 -5.599384169952512 0.026442257066098672 -0.007187338735790653 -6.7125776422468695 -0.029753012693768847 0.027966933318794917 -6.732613176633875 0.03863226828106952 0.013126060807706418 0.0305719948599146 -0.027351341013934435 0.02718948089742219 8.020186298722392 3.462373542638118 -19.229617555387225 0.018960375334594732 10.44099086793021 -0.0333192441255534 -5.658766285747546 -15.629242362689709 3.184458594150738 0.044641923244709086 -0.0004816470933635851 0.010934361460220256 0.023773625262176735 4.667725835965579 -0.011974840577628 12.448937556755789 -8.251554853398357 6.867211491837346 0.034647703686982376 46.39179131718433 -0.030021690784339423 -4.357162607248986 -14.749499471895076 -3.785522900784198 0.04560923862085177 -0.0006242237740941958 0.04980724041850934 0.002021547901603861 -10.762929471566823 -0.008491750224132358 
0.022060928473520036 -0.003545261248298865 -0.01911476641053779 0.03766254918823872 -0.04193228057093687 0.018988274818423162 -3.1081022511788015 0.5941863760259443 -0.6889355670642667 -1.1449747174875777 3.865071510158959 0.3699409985776404 -1.3224174347134892 -2.167763670397659 -1.4644771635889142 -0.5733315480571971 0.5826027129955564 -0.8416987407652656 -0.9955450612633854 14.006460873163501 3.4562062705123746 0.28839792497127636 0.2691108198569297 7.079325130574849 -0.6160487427089903 -14.629803522932677 0.5761498368016672 -5.543036428244543 1.919904450192116 -14.924411277950025 70.7011318231433 20.06568361839276 -0.01799481237737299 2.352244742898317 0.799050262215896 44.44830078123343 22.409147827535293 -0.21223336630981676 -4.315182407074982 4.522492496458013 -0.1065949157245179 -1.6034608107167663 -0.021072792210882513 -0.014158209451974435 -56.25781967296477 -0.005236969301694665 -0.017611439454968562 -56.27224165553771 -38.73674931839567 0.030197313185276322 0.049707493468990234 0.008664180041920258 -0.011340957128919752 -0.046612569673600265 0.004217689605808978 0.01651329740683734 -0.002289799786667011 -36.66408402038105 -0.00019691133680750682 -0.03158478542070623 0.037434024240962635 -0.0010160585019915493 -0.010285922020930243 -0.04921889116037116 -0.03280868967485146 -0.040079417850095216 -19.768945365238075 0.008618973502058277 0.044696586153119035 0.017574977741904148 0.030008126202873665 0.02057511343274214 -0.031471799315030066 -0.010037752565343871 -0.04124189399417323 24.07602048331535 0.005643762948363147 0.00439929337878553 28.86253396660097 0.023104159637696204 0.0015716299385644828 28.89274343557863 0.01626113103006773 0.019574722287197265 8.20566879531938 1.7476608367549809 13.693506309620867 -70.85408025696601 20.93107319660587 -10.221879899490533 0.6009097289061889 -13.164042054456264 -46.16594471753542 -6.090149546765427 0.8341021106839063 2.380128785286424 -0.4981114056083255 0.08301515810326651 -8.092145592969025 0.036898817012670115 -0.03612825043295028 44.551424964302974 -0.01614372185849239 0.018719561930428737 44.5592077583681 12.464922038985955 -0.0051110465985651134 -0.004259114812305169 0.034163844642535884 0.022707008228845395 -0.006208525870806722 -0.04961203732695023 -0.001406654673742645 -0.024221928101092673 11.114908539314454 -0.04034674515069559 0.04904573927610242 -0.016074113294851766 0.046500180114938214 0.046004223173005496 0.03916138591891534 0.021701946899556134 0.0060947463731705065 4.731852310131599 0.011245322644839382 0.012459162841704808 -0.01532394773802071 0.033479654284343095 0.012812906565426049 0.042038256120922254 0.026831126541453747 -0.02096248620086466 -5.5937839638064135 0.010037319396541275 -0.015051457047463933 -6.754205136386647 0.028593671300030904 0.02168034180158308 -6.7370460033337904 0.028593525409413435 0.048245385768358066 0.020266696563632416 0.03387237929209329 -0.028389046770700758 8.063698491057385 3.5108418618939705 -19.171977411478707 -0.018519181657014633 10.428468691104724 0.04851698135710818 -5.601542445439436 -15.649691903128783 3.211233794722672 -0.04474181223715991 -0.04202312182150339 -0.015458565978496772 0.027489317969170653 4.7070493703954295 -0.026098993339424684 12.490525255370104 -8.266482009278151 6.886875578010534 -0.013847851124224438 46.38775666529482 -0.012153039643670434 -4.341904538150858 -14.716744871829091 -3.828249490039377 0.014916813569936018 0.025003235926445516 0.019087793800364954 0.04748065429650677 -10.768306429530288 0.006634788453801476 
